# xmcd CD database file
#
# Track frame offsets:
#	150
#	19080
#	32970
#	38865
#
# Disc length: 769 seconds
#
# Revision: 5
# Processed by: cddbd v1.5PL3 Copyright (c) Steve Scherf et al.
# Submitted via: CDex 1.50
#
DISCID=2b02ff04
DTITLE=山崎まさよし - セロリ
DYEAR=1996
DGENRE=JPop
TTITLE0=セロリ
TTITLE1=××しようよ
TTITLE2=mud skiffle track III (instrumental)
TTITLE3=セロリ (karaoke)
EXTD=YEAR: 1996
EXTT0=
EXTT1=
EXTT2=
EXTT3=
PLAYORDER=
